# AST/ASF file generated using VICON BodyLanguage
# -----------------------------------------------
:version 1.10
:name VICON
:units
  mass 1.0
  length 0.45
  angle deg
:documentation
   .ast/.asf automatically generated from VICON data using
   VICON BodyBuilder and BodyLanguage model FoxedUp or BRILLIANT.MOD
:root
   order TX TY TZ RX RY RZ
   axis XYZ
   position 0 0 0  
   orientation 0 -0 0 
:bonedata
  begin
     id 1 
     name lhipjoint
     direction 0.500677 -0.737119 0.453848 
     length 2.34727 
     axis 0 -0 0  XYZ
  end
  begin
     id 2 
     name lfemur
     direction 0.34202 -0.939693 0  
     length 7.53653  
     axis 0 -0 20  XYZ
    dof rx ry rz
    limits (-160.0 20.0)
           (-70.0 70.0)
           (-60.0 70.0)
  end
  begin
     id 3 
     name ltibia
     direction 0.34202 -0.939693 0   
     length 6.85572   
     axis 0 -0 20   XYZ
    dof rx
    limits (-10.0 170.0)
  end
  begin
     id 4 
     name lfoot
     direction 0.155313 -0.426718 0.890949   
     length 2.18324   
     axis -90 -1.13533e-015 20   XYZ
    dof rx rz
    limits (-45.0 90.0)
           (-70.0 20.0)
  end
  begin
     id 5 
     name ltoes
     direction 1.53474e-011 -4.21647e-011 1   
     length 1.06748   
     axis -90 -1.13533e-015 20   XYZ
    dof rx
    limits (-90.0 20.0)
  end
  begin
     id 6 
     name rhipjoint
     direction -0.632471 -0.659587 0.406111   
     length 2.62319  
     axis 0 -0 0  XYZ 
  end
  begin
     id 7 
     name rfemur
     direction -0.34202 -0.939693 0   
     length 7.21735   
     axis 0 -0 -20   XYZ
    dof rx ry rz
    limits (-160.0 20.0)
           (-70.0 70.0)
           (-70.0 60.0)
  end
  begin
     id 8 
     name rtibia
     direction -0.34202 -0.939693 0   
     length 7.02558   
     axis 0 -0 -20   XYZ
    dof rx
    limits (-10.0 170.0)
 end
 begin
     id 9 
     name rfoot
     direction -0.16057 -0.441164 0.882945   
     length 2.10014  
     axis -90 1.13533e-015 -20   XYZ
    dof rx rz
    limits (-45.0 90.0)
           (-20.0 70.0)
  end
  begin
     id 10 
     name rtoes
     direction -1.53553e-011 -4.2192e-011 1   
     length 1.02554   
     axis -90 1.13533e-015 -20   XYZ
    dof rx
    limits (-90.0 20.0)
  end
  begin
     id 11 
     name lowerback
     direction 0.0401429 0.998861 -0.0258085   
     length 1.80848   
     axis 0 -0 0   XYZ
    dof rx ry rz
    limits (-20.0 45.0)
           (-30.0 30.0)
           (-30.0 30.0)
  end
  begin
     id 12 
     name upperback
     direction -0.0130978 0.999914 -0.000352645   
     length 1.8116   
     axis 0 -0 0   XYZ
    dof rx ry rz
    limits (-20.0 45.0)
           (-30.0 30.0)
           (-30.0 30.0)
  end
  begin
     id 13 
     name thorax
     direction -0.0300198 0.999453 0.0138573   
     length 1.81778   
     axis 0 -0 0   XYZ
    dof rx ry rz
    limits (-20.0 45.0)
           (-30.0 30.0)
           (-30.0 30.0)
  end
  begin
     id 14 
     name lowerneck
     direction -0.0401726 0.999191 -0.00173647   
     length 2.10594   
     axis 0 -0 0   XYZ
    dof rx ry rz
    limits (-20.0 45.0)
           (-30.0 30.0)
           (-30.0 30.0)
  end
  begin
     id 15 
     name upperneck
     direction 0.0119835 0.998501 0.0534085   
     length 2.07325   
     axis 0 -0 0   XYZ
    dof rx ry rz
    limits (-20.0 45.0)
           (-30.0 30.0)
           (-30.0 30.0)
  end
  begin
     id 16
     name head
     direction 0.00628309 0.999826 0.0175921  
     length 2.15096  
     axis 0 -0 0   XYZ
    dof rx ry rz
    limits (-20.0 45.0)
           (-30.0 30.0)
           (-30.0 30.0)
  end
  begin
     id 17 
     name lclavicle
     direction 0.895501 0.429681 -0.115981  
     length 4.18092  
     axis 0 -0 0   XYZ
    dof ry rz
    limits (-20.0 10.0)
           (0.0 20.0)
  end
  begin
     id 18 
     name lhumerus
     direction 1 -4.48961e-011 -3.38433e-028   
     length 5.77237   
     axis 180 -30 -90   XYZ
    dof rx ry rz
    limits (-60.0 90.0)
           (-90.0 90.0)
           (-90.0 90.0)
  end
  begin
     id 19
     name lradius
     direction 1 -4.4901e-011 1.11983e-026   
     length 2.91878   
     axis 180 -30 -90   XYZ
    dof rx
    limits (-10.0 170.0)
  end
  begin
     id 20
     name lwrist
     direction 1 -4.48934e-011 1.88176e-026   
     length 1.45939   
     axis -1.23311e-014 90 90   XYZ
    dof ry
    limits (-180.0 0.0)
 end
  begin
     id 21 
     name lhand
     direction 1 -4.4895e-011 3.76352e-026   
     length 1.06566   
     axis -2.40147e-014 90 90   XYZ
    dof rx rz
    limits (-90.0 90.0)
           (-45.0 45.0)
  end
  begin
     id 22 
     name lfingers
     direction 1 -4.49005e-011 7.52705e-026   
     length 0.859162   
     axis -4.80295e-014 90 90   XYZ
    dof rx
    limits (0.0 90.0)
  end
  begin
     id 23
     name lthumb
     direction 0.707107 -6.34885e-011 0.707107   
     length 1.23359   
     axis -90 45 -9.86935e-015   XYZ
    dof rx rz
    limits (-45.0 45.0)
           (-45.0 45.0)
  end
  begin
     id 24 
     name rclavicle
     direction -0.91006 0.40451 -0.0903492   
     length 4.23293  
     axis 0 -0 0   XYZ 
    dof ry rz
    limits (-10.0 20.0)
           (-20.0 0.0)
  end
  begin
     id 25 
     name rhumerus
     direction -1 -4.4897e-011 1.7415e-027  
     length 5.49854   
     axis 180 30 90   XYZ
    dof rx ry rz
    limits (-90.0 60.0)
           (-90.0 90.0)
           (-90.0 90.0)
  end
  begin
     id 26 
     name rradius
     direction -1 -4.48963e-011 1.21259e-026   
     length 3.1186   
     axis 180 30 90   XYZ
    dof rx
    limits (-10.0 170.0)
  end
  begin
     id 27 
     name rwrist
     direction -1 -4.48967e-011 1.88176e-026   
     length 1.5593   
     axis -1.23311e-014 -90 -90   XYZ
    dof ry
    limits (-180.0 0.0)
  end
  begin
     id 28
     name rhand
     direction -1 -4.4895e-011 3.76352e-026   
     length 0.71207   
     axis -2.40147e-014 -90 -90   XYZ
    dof rx rz
    limits (-90.0 90.0)
           (-45.0 45.0)
  end
  begin
     id 29
     name rfingers
     direction -1 -4.49005e-011 7.52705e-026   
     length 0.574089   
     axis -4.80295e-014 -90 -90   XYZ
    dof rx
    limits (0.0 90.0)
  end
  begin
     id 30
     name rthumb
     direction -0.707107 -6.34982e-011 0.707107   
     length 0.824281   
     axis -90 -45 9.86935e-015   XYZ
    dof rx rz
    limits (-45.0 45.0)
           (-45.0 45.0)
  end
:hierarchy
  begin
    root lhipjoint rhipjoint lowerback
    lhipjoint lfemur
    lfemur ltibia
    ltibia lfoot
    lfoot ltoes
    rhipjoint rfemur
    rfemur rtibia
    rtibia rfoot
    rfoot rtoes
    lowerback upperback
    upperback thorax
    thorax lowerneck lclavicle rclavicle
    lowerneck upperneck
    upperneck head
    lclavicle lhumerus
    lhumerus lradius
    lradius lwrist
    lwrist lhand lthumb
    lhand lfingers
    rclavicle rhumerus
    rhumerus rradius
    rradius rwrist
    rwrist rhand rthumb
    rhand rfingers
  end

#!OML:ASF C:\ViconDB\ViconDB\414\Spring2016\042216\male.ASF
:FULLY-SPECIFIED
:DEGREES
305
root 8.00309 20.5515 7.94299 -166.375 24.5685 -171.985
lowerback 5.61196 -4.71287 11.7481
upperback 1.66218 -5.45361 0.822181
thorax -2.41849 -2.71485 -5.22894
lowerneck 1.82372 1.22395 -9.48216
upperneck -17.4996 2.32876 3.96136
head -5.72989 1.7813 2.6695
rclavicle -1.01678e-013 4.17448e-014
rhumerus -9.29284 -15.5314 -19.3629
rradius 64.7419
rwrist 0.893326
rhand -1.85728 -32.3842
rfingers 7.12502
rthumb 23.8103 -60.9287
lclavicle -1.01678e-013 4.17448e-014
lhumerus -28.1871 32.1363 17.4007
lradius 62.6647
lwrist 21.1415
lhand -37.7481 12.4113
lfingers 7.12502
lthumb -10.7963 42.1138
rfemur -48.5247 -5.1026 15.5283
rtibia 66.5597
rfoot 8.20767 -8.39365
rtoes -18.0432
lfemur -20.0968 0.716769 2.395
ltibia 36.5203
lfoot 5.61302 12.8149
ltoes -14.9279
306
root 8.18326 20.5873 7.94981 -167.073 23.454 -172.379
lowerback 6.09995 -4.77655 11.6517
upperback 1.78621 -5.45477 1.03941
thorax -2.53193 -2.70371 -4.91638
lowerneck 2.16217 1.05301 -9.65065
upperneck -17.6527 2.06756 4.05773
head -5.81995 1.66034 2.74181
rclavicle -2.41523e-014 -6.0033e-014
rhumerus -9.64214 -15.6529 -19.5227
rradius 64.8793
rwrist 1.08485
rhand -2.2833 -32.6662
rfingers 7.12502
rthumb 23.4016 -61.2634
lclavicle -2.41523e-014 -6.0033e-014
lhumerus -28.5343 31.9398 17.3345
lradius 62.7845
lwrist 20.6615
lhand -37.8861 12.0105
lfingers 7.12502
lthumb -10.9294 41.7061
rfemur -45.3067 -4.25431 14.838
rtibia 61.5228
rfoot 10.038 -8.02518
rtoes -18.4872
lfemur -23.2817 2.0201 2.86487
ltibia 43.9961
lfoot 3.01153 13.8195
ltoes -12.3394
307
root 8.36153 20.5972 7.95652 -167.907 22.3725 -172.953
lowerback 6.61711 -4.87177 11.5829
upperback 1.94943 -5.50558 1.06009
thorax -2.64954 -2.71946 -4.81829
lowerneck 2.37454 0.911884 -9.70934
upperneck -17.6905 1.87363 4.22449
head -5.85485 1.55742 2.81552
rclavicle 1.59723e-013 -5.76476e-014
rhumerus -10.1524 -15.8001 -20.0616
rradius 65.2071
rwrist 1.05397
rhand -2.64702 -33.1391
rfingers 7.12502
rthumb 23.0527 -61.7803
lclavicle 1.59723e-013 -5.76476e-014
lhumerus -29.0071 31.6008 17.2001
lradius 63.0505
lwrist 21.1342
lhand -37.8199 12.1176
lfingers 7.12502
lthumb -10.8655 41.8165
rfemur -41.9363 -3.3106 13.9402
rtibia 56.2878
rfoot 11.8411 -7.51162
rtoes -18.4482
lfemur -26.0792 3.23842 3.184
ltibia 50.5621
lfoot 1.03068 14.3442
ltoes -10.7409
308
root 8.55305 20.5846 7.97045 -168.745 21.2707 -173.641
lowerback 7.21719 -4.91977 11.2592
upperback 2.06112 -5.50295 1.05471
thorax -2.83768 -2.71482 -4.60607
lowerneck 2.48444 0.710381 -9.59724
upperneck -17.5972 1.57622 4.15155
head -5.82113 1.40612 2.7901
rclavicle 4.7758e-014 -3.55825e-014
rhumerus -10.8721 -16.1514 -20.7988
rradius 65.1733
rwrist 2.06442
rhand -2.56958 -32.9947
rfingers 7.12502
rthumb 23.127 -61.6265
lclavicle 4.7758e-014 -3.55825e-014
lhumerus -29.3746 31.2468 17.3637
lradius 63.2848
lwrist 22.1174
lhand -37.8409 12.3887
lfingers 7.12502
lthumb -10.8858 42.0865
rfemur -38.5646 -2.19432 12.9779
rtibia 50.8567
rfoot 13.9069 -6.49959
rtoes -17.4574
lfemur -28.6744 4.28162 3.52188
ltibia 56.4609
lfoot -1.00395 14.6136
ltoes -10.1942
309
root 8.74814 20.5511 7.9785 -169.566 20.2427 -174.224
lowerback 7.91434 -4.96194 11.0637
upperback 2.08127 -5.46964 1.02924
thorax -3.18459 -2.70685 -4.47703
lowerneck 2.9134 0.592763 -9.54993
upperneck -17.7218 1.37804 4.19339
head -5.91911 1.30059 2.80705
rclavicle 3.75703e-014 -5.06901e-014
rhumerus -11.8649 -15.4748 -21.4396
rradius 65.5652
rwrist 2.02998
rhand -2.78872 -33.3075
rfingers 7.12502
rthumb 22.9167 -61.9656
lclavicle 3.75703e-014 -5.06901e-014
lhumerus -30.0024 30.9812 17.5149
lradius 63.4042
lwrist 22.9965
lhand -37.6314 12.4332
lfingers 7.12502
lthumb -10.6838 42.1416
rfemur -35.0557 -0.665164 12.0172
rtibia 45.1986
rfoot 15.5529 -6.02723
rtoes -16.3399
lfemur -31.0097 5.28015 3.98862
ltibia 61.8264
lfoot -2.6818 14.6477
ltoes -9.61974
310
root 8.94772 20.4921 7.98446 -170.261 19.2331 -174.772
lowerback 8.34378 -5.01275 10.9971
upperback 2.17589 -5.48516 0.922587
thorax -3.33062 -2.71312 -4.52158
lowerneck 3.09387 0.431944 -9.61237
upperneck -17.6664 1.15252 4.36872
head -5.91622 1.1771 2.88671
rclavicle 7.93648e-014 -6.43068e-014
rhumerus -12.732 -15.5835 -22.6193
rradius 65.455
rwrist 3.02425
rhand -2.75789 -32.972
rfingers 7.12502
rthumb 22.9463 -61.6265
lclavicle 7.93648e-014 -6.43068e-014
lhumerus -30.7627 30.4987 17.7423
lradius 63.6744
lwrist 23.8573
lhand -37.7025 12.9279
lfingers 7.12502
lthumb -10.7523 42.6327
rfemur -31.5656 1.1004 11.1386
rtibia 39.2711
rfoot 17.5812 -5.14991
rtoes -14.6707
lfemur -33.3403 6.45712 4.49902
ltibia 66.7867
lfoot -4.08147 14.2246
ltoes -8.93256
311
root 9.15453 20.4058 7.99805 -170.912 18.1556 -175.395
lowerback 8.84913 -5.03327 10.6967
upperback 2.23968 -5.47036 0.849368
thorax -3.52198 -2.70572 -4.40048
lowerneck 3.09529 0.210364 -9.5923
upperneck -17.528 0.857013 4.45421
head -5.8502 1.02223 2.92729
rclavicle 1.02759e-013 -2.127e-014
rhumerus -13.7965 -15.6267 -23.7541
rradius 65.2556
rwrist 4.10809
rhand -2.73715 -32.417
rfingers 7.12502
rthumb 22.9662 -61.069
lclavicle 1.02759e-013 -2.127e-014
lhumerus -31.5752 29.6813 18.2678
lradius 63.7319
lwrist 24.4615
lhand -37.9122 13.3389
lfingers 7.12502
lthumb -10.9546 43.0331
rfemur -28.037 3.13655 10.2374
rtibia 32.9645
rfoot 19.7067 -4.34276
rtoes -14.9081
lfemur -35.7877 7.61469 4.99956
ltibia 71.4059
lfoot -5.37694 13.3147
ltoes -9.04595
312
root 9.36502 20.3079 8.00249 -171.463 17.1577 -175.966
lowerback 9.20532 -5.02339 10.4483
upperback 2.27815 -5.43136 0.809182
thorax -3.65481 -2.68537 -4.28748
lowerneck 3.22456 0.0339121 -9.80838
upperneck -17.4539 0.600385 4.61461
head -5.83049 0.895339 3.02921
rclavicle 2.54553e-014 -1.40267e-014
rhumerus -14.8713 -14.624 -24.8082
rradius 65.236
rwrist 3.39101
rhand -3.787 -33.1352
rfingers 7.12502
rthumb 21.9585 -61.9089
lclavicle 2.54553e-014 -1.40267e-014
lhumerus -32.4251 29.3119 18.9174
lradius 63.6178
lwrist 24.7934
lhand -37.909 13.315
lfingers 7.12502
lthumb -10.9515 43.0094
rfemur -24.5294 5.59403 9.36884
rtibia 26.5387
rfoot 21.5109 -3.28027
rtoes -15.8065
lfemur -38.2191 8.83618 5.53347
ltibia 75.8354
lfoot -7.00466 12.1408
ltoes -8.68038
313
root 9.58022 20.1881 8.00854 -172.005 16.0376 -176.531
lowerback 9.33402 -4.95959 10.3621
upperback 2.48073 -5.34511 0.657455
thorax -3.50569 -2.6242 -4.41338
lowerneck 3.19116 -0.300871 -9.83326
upperneck -17.4096 0.174062 4.7806
head -5.77637 0.681524 3.11033
rclavicle -3.57564e-014 -2.80783e-014
rhumerus -16.1824 -13.5878 -25.8549
rradius 65.1775
rwrist 2.91522
rhand -4.47072 -33.644
rfingers 7.12502
rthumb 21.3019 -62.4933
lclavicle -3.57564e-014 -2.80783e-014
lhumerus -32.7447 29.192 20.0007
lradius 63.4032
lwrist 24.7326
lhand -38.1751 13.591
lfingers 7.12502
lthumb -11.2082 43.2716
rfemur -20.6578 8.38671 8.52972
rtibia 19.3867
rfoot 23.4293 -2.00947
rtoes -16.9882
lfemur -40.6689 9.95553 6.10135
ltibia 79.9662
lfoot -8.65505 10.9271
ltoes -9.23455
314
root 9.78977 19.9918 8.0073 -172.495 14.9437 -177.154
lowerback 9.35018 -4.91501 10.2173
upperback 2.69952 -5.30635 0.486887
thorax -3.28117 -2.58305 -4.52829
lowerneck 3.0515 -0.625243 -10.0632
upperneck -17.3061 -0.206017 5.20312
head -5.68559 0.485047 3.30312
rclavicle 5.06652e-014 1.00386e-014
rhumerus -17.2542 -13.2072 -27.1095
rradius 64.4187
rwrist 4.55272
rhand -3.74551 -33.2098
rfingers 7.12502
rthumb 21.9983 -61.9788
lclavicle 5.06652e-014 1.00386e-014
lhumerus -33.0981 29.1289 21.0858
lradius 63.128
lwrist 24.9773
lhand -38.3701 14.0107
lfingers 7.12502
lthumb -11.3962 43.681
rfemur -15.6153 9.24396 8.16071
rtibia 9.87947
rfoot 26.5481 0.803343
rtoes -15.6874
lfemur -43.4117 11.2579 6.65148
ltibia 84.1274
lfoot -10.2959 9.6941
ltoes -8.97715
315
root 10.0026 19.8297 8.00447 -173.018 13.891 -177.827
lowerback 9.46082 -4.84886 9.89182
upperback 2.86725 -5.23871 0.376298
thorax -3.13782 -2.53177 -4.47552
lowerneck 2.87643 -0.912953 -10.1776
upperneck -17.0441 -0.574201 5.38113
head -5.54139 0.295789 3.39401
rclavicle -2.98177e-014 6.39093e-014
rhumerus -18.2163 -12.7165 -28.3568
rradius 63.5453
rwrist 5.98057
rhand -3.63573 -32.9269
rfingers 7.12502
rthumb 22.1037 -61.6835
lclavicle -2.98177e-014 6.39093e-014
lhumerus -33.6245 29.0954 22.3193
lradius 62.794
lwrist 24.9628
lhand -38.4914 14.4525
lfingers 7.12502
lthumb -11.5132 44.1163
rfemur -10.385 10.0436 7.57221
rtibia 1.66979e-014
rfoot 29.7376 4.29391
rtoes -18.3835
lfemur -45.8357 12.4545 7.04681
ltibia 87.8019
lfoot -11.8676 8.74719
ltoes -8.64171
316
root 10.2149 19.6487 7.99753 -173.423 12.8378 -178.37
lowerback 9.44441 -4.78789 9.67268
upperback 3.06499 -5.17925 0.304987
thorax -2.90004 -2.47901 -4.44882
lowerneck 2.6076 -1.20579 -10.3078
upperneck -16.7877 -0.930279 5.58916
head -5.3826 0.114867 3.49389
rclavicle -4.02539e-014 -1.43125e-014
rhumerus -19.1238 -11.9097 -29.7243
rradius 62.6731
rwrist 6.49405
rhand -3.63974 -32.6626
rfingers 7.12502
rthumb 22.0999 -61.4197
lclavicle -4.02539e-014 -1.43125e-014
lhumerus -34.1419 29.1293 23.632
lradius 62.5183
lwrist 25.2284
lhand -38.6052 14.7453
lfingers 7.12502
lthumb -11.6229 44.4029
rfemur -9.92447 10.931 7.30926
rtibia 2.75317e-014
rfoot 28.7135 7.50083
rtoes -17.5373
lfemur -48.3227 13.8111 7.524
ltibia 91.2454
lfoot -13.3865 8.06319
ltoes -8.51097
317
root 10.4248 19.4543 7.98454 -174.044 11.7807 -179.268
lowerback 9.59954 -4.75356 9.10998
upperback 3.22118 -5.17359 0.135238
thorax -2.78974 -2.46192 -4.31311
lowerneck 2.57772 -1.46036 -10.4322
upperneck -16.5911 -1.2743 5.75084
head -5.28447 -0.063017 3.57909
rclavicle -1.58034e-014 4.25399e-014
rhumerus -19.7949 -10.9023 -31.2078
rradius 61.511
rwrist 6.98534
rhand -3.80608 -32.4057
rfingers 7.12502
rthumb 21.9402 -61.1815
lclavicle -1.58034e-014 4.25399e-014
lhumerus -34.8379 29.1374 24.9105
lradius 62.3241
lwrist 25.5612
lhand -38.827 15.1787
lfingers 7.12502
lthumb -11.8368 44.8242
rfemur -9.22351 11.8177 6.75467
rtibia 2.92213e-014
rfoot 28.072 10.4945
rtoes -18.5165
lfemur -50.6221 14.9643 7.54497
ltibia 94.3803
lfoot -14.9591 7.69503
ltoes -8.09769
318
root 10.6364 19.2402 7.97176 -174.471 10.7654 -179.961
lowerback 9.65112 -4.71198 8.65591
upperback 3.36036 -5.1562 0.0237055
thorax -2.64261 -2.43894 -4.18411
lowerneck 2.35778 -1.69036 -10.4896
upperneck -16.2911 -1.55786 5.92102
head -5.12647 -0.215722 3.64821
rclavicle -4.27387e-015 -7.95139e-015
rhumerus -20.3422 -9.94677 -32.7642
rradius 60.2623
rwrist 7.64707
rhand -3.81857 -32.2044
rfingers 7.12502
rthumb 21.9282 -60.9817
lclavicle -4.27387e-015 -7.95139e-015
lhumerus -35.5477 29.4034 26.1405
lradius 62.1163
lwrist 26.092
lhand -38.7786 14.9894
lfingers 7.12502
lthumb -11.7902 44.6376
rfemur -8.6506 12.7761 6.52728
rtibia 3.39176e-015
rfoot 28.4371 13.7748
rtoes -19.5701
lfemur -53.0659 16.2794 7.76275
ltibia 97.2705
lfoot -16.4694 7.40229
ltoes -8.61687
319
root 10.8458 19.0168 7.94957 -174.9 9.8029 -180.862
lowerback 9.48018 -4.65247 8.11516
upperback 3.56629 -5.1522 -0.204693
thorax -2.30881 -2.41618 -4.14504
lowerneck 2.08593 -1.93587 -10.5346
upperneck -16.0131 -1.84332 6.15014
head -4.96474 -0.370512 3.73225
rclavicle 6.49032e-014 -6.16232e-014
rhumerus -20.7451 -9.18965 -34.4246
rradius 58.9177
rwrist 8.1502
rhand -3.94227 -31.91
rfingers 7.12502
rthumb 21.8094 -60.7011
lclavicle 6.49032e-014 -6.16232e-014
lhumerus -36.2375 29.7448 27.3911
lradius 62.1978
lwrist 26.8084
lhand -38.8644 15.5775
lfingers 7.12502
lthumb -11.8729 45.2209
rfemur -7.96776 13.7774 6.17732
rtibia -6.06293e-015
rfoot 27.2569 16.2657
rtoes -26.2255
lfemur -55.4679 17.5902 7.61936
ltibia 99.8848
lfoot -17.85 7.55148
ltoes -8.59878
